<?xml version="1.0" encoding="UTF-8" standalone="no"?>
<!-- Created with Inkscape (http://www.inkscape.org/) -->

<svg
   width="32"
   height="32"
   id="svg2"
   sodipodi:version="0.32"
   inkscape:version="1.2.2 (b0a8486541, 2022-12-01)"
   sodipodi:docname="Arcade_Pac_Man_Game_clip_art.svg"
   inkscape:output_extension="org.inkscape.output.svg.inkscape"
   version="1.0"
   inkscape:export-filename="../../git/Java2024/src/main/resources/svgdemo/ghost.png"
   inkscape:export-xdpi="96"
   inkscape:export-ydpi="96"
   xmlns:inkscape="http://www.inkscape.org/namespaces/inkscape"
   xmlns:sodipodi="http://sodipodi.sourceforge.net/DTD/sodipodi-0.dtd"
   xmlns:xlink="http://www.w3.org/1999/xlink"
   xmlns="http://www.w3.org/2000/svg"
   xmlns:svg="http://www.w3.org/2000/svg"
   xmlns:rdf="http://www.w3.org/1999/02/22-rdf-syntax-ns#"
   xmlns:cc="http://creativecommons.org/ns#"
   xmlns:dc="http://purl.org/dc/elements/1.1/">
  <defs
     id="defs4">
    <inkscape:perspective
       sodipodi:type="inkscape:persp3d"
       inkscape:vp_x="-50 : 504 : 1"
       inkscape:vp_y="0 : 1000 : 0"
       inkscape:vp_z="700 : 504 : 1"
       inkscape:persp3d-origin="300 : 304 : 1"
       id="perspective42" />
    <linearGradient
       id="linearGradient4072">
      <stop
         style="stop-color:#000000;stop-opacity:1;"
         offset="0"
         id="stop4074" />
      <stop
         style="stop-color:#000000;stop-opacity:0;"
         offset="1"
         id="stop4076" />
    </linearGradient>
    <linearGradient
       id="linearGradient2315">
      <stop
         style="stop-color:#000000;stop-opacity:0;"
         offset="0"
         id="stop2317" />
      <stop
         style="stop-color:#000000;stop-opacity:0.57195574;"
         offset="1"
         id="stop2319" />
    </linearGradient>
    <filter
       inkscape:collect="always"
       id="filter3730"
       x="-0.34801543"
       width="1.6960309"
       y="-0.3408484"
       height="1.6816968">
      <feGaussianBlur
         inkscape:collect="always"
         stdDeviation="5.4650567"
         id="feGaussianBlur3732" />
    </filter>
    <filter
       inkscape:collect="always"
       id="filter4065"
       x="-0.90570748"
       width="2.811415"
       y="-0.36899194"
       height="1.7379839">
      <feGaussianBlur
         inkscape:collect="always"
         stdDeviation="4.1511594"
         id="feGaussianBlur4067" />
    </filter>
    <filter
       inkscape:collect="always"
       id="filter4112"
       x="-0.070020583"
       width="1.1400412"
       y="-0.34009998"
       height="1.6802">
      <feGaussianBlur
         inkscape:collect="always"
         stdDeviation="3.9678331"
         id="feGaussianBlur4114" />
    </filter>
    <radialGradient
       inkscape:collect="always"
       xlink:href="#linearGradient4072"
       id="radialGradient3237"
       gradientUnits="userSpaceOnUse"
       gradientTransform="matrix(1.4028467,1.6438735e-6,-1.4520791e-7,0.2058824,-89.844917,403.11278)"
       cx="210.88904"
       cy="506.35242"
       fx="210.88904"
       fy="506.35242"
       r="68" />
    <radialGradient
       inkscape:collect="always"
       xlink:href="#linearGradient2315"
       id="radialGradient3241"
       gradientUnits="userSpaceOnUse"
       gradientTransform="matrix(0.387095,1.5161279,-1.4234088,0.3634221,726.51481,-93.106615)"
       cx="233.49998"
       cy="409.86218"
       fx="233.49998"
       fy="409.86218"
       r="15.5" />
    <radialGradient
       inkscape:collect="always"
       xlink:href="#linearGradient2315"
       id="radialGradient3243"
       gradientUnits="userSpaceOnUse"
       gradientTransform="matrix(0.387095,1.5161279,-1.4234088,0.3634221,726.51481,-93.106615)"
       cx="233.49998"
       cy="409.86218"
       fx="233.49998"
       fy="409.86218"
       r="15.5" />
    <radialGradient
       inkscape:collect="always"
       xlink:href="#linearGradient2315"
       id="radialGradient3256"
       gradientUnits="userSpaceOnUse"
       gradientTransform="matrix(0.7158046,1.4128374,-1.3538472,0.6859177,1027.8362,-6.77224)"
       cx="216.99271"
       cy="497.9592"
       fx="216.99271"
       fy="497.9592"
       r="65" />
  </defs>
  <sodipodi:namedview
     id="base"
     pagecolor="#ffffff"
     bordercolor="#666666"
     borderopacity="1.0"
     gridtolerance="10000"
     guidetolerance="10"
     objecttolerance="10"
     inkscape:pageopacity="0.0"
     inkscape:pageshadow="2"
     inkscape:zoom="3.6090886"
     inkscape:cx="70.1008"
     inkscape:cy="59.571826"
     inkscape:document-units="px"
     inkscape:current-layer="layer1"
     showgrid="false"
     inkscape:window-width="1920"
     inkscape:window-height="1011"
     inkscape:window-x="0"
     inkscape:window-y="0"
     showguides="true"
     inkscape:guide-bbox="true"
     height="640px"
     width="128px"
     inkscape:showpageshadow="0"
     inkscape:pagecheckerboard="0"
     inkscape:deskcolor="#d1d1d1"
     inkscape:window-maximized="1">
    <inkscape:grid
       type="xygrid"
       id="grid3194"
       originx="-5.4858147"
       originy="-21.805909"
       spacingx="1"
       spacingy="1" />
  </sodipodi:namedview>
  <metadata
     id="metadata7">
    <rdf:RDF>
      <cc:Work
         rdf:about="">
        <dc:format>image/svg+xml</dc:format>
        <dc:type
           rdf:resource="http://purl.org/dc/dcmitype/StillImage" />
        <dc:date />
        <dc:creator>
          <cc:Agent>
            <dc:title />
          </cc:Agent>
        </dc:creator>
        <dc:rights>
          <cc:Agent>
            <dc:title />
          </cc:Agent>
        </dc:rights>
        <dc:publisher>
          <cc:Agent>
            <dc:title />
          </cc:Agent>
        </dc:publisher>
        <dc:identifier />
        <dc:source />
        <dc:relation />
        <dc:language />
        <dc:subject>
          <rdf:Bag />
        </dc:subject>
        <dc:coverage />
        <dc:description />
        <dc:contributor>
          <cc:Agent>
            <dc:title />
          </cc:Agent>
        </dc:contributor>
        <cc:license
           rdf:resource="" />
      </cc:Work>
    </rdf:RDF>
  </metadata>
  <g
     inkscape:label="Layer 1"
     inkscape:groupmode="layer"
     id="layer1"
     transform="translate(-238.90602,-33.540429)">
    <g
       id="g3677"
       transform="matrix(0.19492473,0,0,0.19492473,151.20606,-84.13215)">
      <path
         transform="matrix(1.0588235,0,0,0.8571429,313.88235,306.48031)"
         style="fill:url(#radialGradient3237);fill-opacity:1;stroke:none;stroke-width:4;stroke-linecap:round;stroke-miterlimit:4;stroke-opacity:1;filter:url(#filter4112)"
         d="m 274,507.36218 c 0,7.728 -30.464,14 -68,14 -37.536,0 -68,-6.272 -68,-14 0,-7.728 30.464,-14 68,-14 37.536,0 68,6.272 68,14 z"
         id="path3211" />
      <g
         id="g3671">
        <path
           sodipodi:nodetypes="cccsssccssc"
           id="path3213"
           d="m 597,680.36218 c 0,4.84287 -0.53051,37.56259 -1.53654,42.10417 -2.4742,12.45921 -10.48333,19.63252 -22.51062,22.36274 -5.59014,1.04284 -11.94871,-21.82388 -18.84956,-21.95132 -6.90086,-0.12744 -14.344,22.48441 -22.10328,22.48441 -7.79566,0 -15.2722,-22.62465 -22.2003,-22.51962 -6.92809,0.10504 -13.30773,22.93976 -18.90959,21.8585 -12.68377,-2.10494 -19.31565,-10.7812 -22.44296,-22.64457 C 467.49911,717.64103 467,685.05954 467,680.36218 c 0,-35.88 29.12,-65 65,-65 35.88,0 65,29.12 65,65 z"
           style="fill:#344a33;fill-opacity:1;stroke:none;stroke-width:4;stroke-linecap:round;stroke-miterlimit:4;stroke-opacity:1" />
        <path
           style="display:inline;overflow:visible;visibility:visible;fill:#463a28;fill-opacity:1;fill-rule:evenodd;stroke:none;stroke-width:2;stroke-linecap:round;stroke-linejoin:round;stroke-miterlimit:4;stroke-dasharray:none;stroke-dashoffset:0;stroke-opacity:1;marker:none"
           d="m 532,615.375 c -23.29394,0 -43.74175,12.25876 -55.21875,30.6875 0.39326,-0.23806 0.77802,-0.51382 1.15625,-0.8125 8.50589,-2.01775 17.3802,-0.8766 26.03125,-1.625 6.63407,0.58255 12.87288,-0.19797 19.25,-1.78125 6.79807,0.68464 13.23561,-2.59815 20.0625,-2.5625 6.63825,-5.08046 12.34906,8.37097 17.65625,0.8125 1.95233,-6.23187 8.02215,-7.71715 14,-8.5 -4.07291,-3.58967 -8.5876,-6.66704 -13.46875,-9.15625 -3.72244,1.48551 -7.32955,2.70372 -10.21875,-0.0625 -0.0639,-1.19801 0.90573,-2.3488 2.09375,-3.40625 -4.20997,-1.46507 -8.60365,-2.48985 -13.15625,-3.0625 -2.26132,0.38371 -4.50779,0.35942 -6.6875,-0.5 -0.50029,-0.0114 -0.99699,-0.0312 -1.5,-0.0312 z m -41.125,52.21875 c -2.69844,0.0874 -5.48097,1.01056 -8.125,1.125 -4.21842,0.0949 -8.41365,0.10075 -12.5,-1.03125 -0.77075,0.1704 -1.49933,0.51009 -2.1875,0.9375 -0.69676,3.81129 -1.0625,7.73846 -1.0625,11.75 0,4.69736 0.48947,37.27201 1.4375,41.6875 0.90776,3.44357 2.12688,6.61376 3.6875,9.4375 4.06688,-0.18318 -4.67173,-7.69121 -0.15625,-8.625 4.4794,0.63549 8.74486,-1.8636 11.125,-5.5625 3.03862,-5.45887 -7.02784,-3.76629 -7.4375,-8.5625 -2.04533,-4.76207 2.67825,-6.54608 6.5625,-5.53125 3.96486,0.62658 8.17252,0.71438 12.125,-0.0937 4.23038,-0.39464 9.50132,-1.02955 12.5,-3.875 -0.53955,-5.22576 -9.15752,-2.09579 -9.5625,-7.0625 -2.28666,-3.48778 0.90398,-4.76676 2.96875,-7.03125 3.76762,-1.65436 8.19993,0.003 12.03125,-1.75 4.2715,-0.67234 7.76203,-3.2907 11.8125,-4.59375 3.51006,-4.53603 -4.4492,-6.24173 -7.59375,-4.3125 -3.79729,1.19843 -8.30803,0.28043 -11.75,2.59375 -3.1963,1.62163 -6.17017,8.11593 -9.90625,3.9375 -3.66746,-3.66696 -8.99224,-0.94213 -13.4375,-1.875 -2.16462,-4.22751 3.20821,-5.38467 6.3125,-4.625 3.82154,-0.3784 7.85531,-0.8549 11.40625,0.96875 5.55473,-1.47064 0.52405,-7.46022 -3.53125,-6.8125 -1.51146,-0.88917 -3.09969,-1.14618 -4.71875,-1.09375 z M 596.1875,689.625 c -6.81045,0.30409 -9.84949,8.09513 -18.125,6 -9.11724,-1.03601 -18.08864,0.2919 -27.125,0.90625 -8.50975,-4.26417 -16.53074,8.55401 -4.4375,8.5625 8.51865,-0.8306 17.64698,-1.37627 22.625,6.34375 3.31814,-0.11661 11.58986,1.002 4.65625,4.25 -3.45062,0.82827 -15.52073,-3.69536 -8.8125,3.1875 8.85691,7.379 18.58822,-0.34815 28.5,-2.03125 1.07892,-0.323 1.9021,-0.46565 2.5625,-0.53125 0.41742,-7.16376 0.69517,-18.44362 0.84375,-26.6875 -0.23133,-0.007 -0.46454,-0.01 -0.6875,0 z m -0.40625,30.4375 c -1.86569,1.64063 -4.53556,3.17968 -6.34375,3.09375 -3.24988,1.46862 -12.19371,-0.0237 -6.53125,5.90625 2.12963,1.02625 5.94795,1.39895 9.53125,2.03125 1.35662,-2.53203 2.39057,-5.39873 3.03125,-8.625 0.10783,-0.48679 0.21566,-1.34103 0.3125,-2.40625 z m -19.5625,15.40625 c -3.74407,0.0354 -6.68221,1.59843 -9.40625,3.65625 2.13249,3.48667 4.17069,6.08332 6.125,5.71875 4.99496,-1.13387 9.31226,-3.05436 12.8125,-5.78125 -3.07799,-0.98461 -6.02279,-2.41617 -8.53125,-3.5625 -0.33452,-0.0202 -0.67751,-0.0343 -1,-0.0312 z"
           id="path7788" />
        <path
           style="display:inline;overflow:visible;visibility:visible;fill:#758949;fill-opacity:1;fill-rule:evenodd;stroke:none;stroke-width:2;stroke-linecap:round;stroke-linejoin:round;stroke-miterlimit:4;stroke-dasharray:none;stroke-dashoffset:0;stroke-opacity:1;marker:none"
           d="m 518.25,616.84375 c -5.57992,1.20362 -10.89661,3.11985 -15.84375,5.65625 3.69098,2.038 2.16197,9.34733 -4.1875,8.40625 -4.3138,-0.63936 -15.53005,7.85451 -8.59375,9.71875 2.72933,0.73352 7.53836,3.21416 2.15625,2.84375 -4.74417,-0.32649 -9.37949,0.39985 -14.03125,1.09375 -3.2726,4.94596 -5.85629,10.35826 -7.6875,16.125 4.85345,-0.33189 9.60427,-1.69012 13.21875,-4.09375 3.98694,-2.65128 7.79941,-3.68685 7.625,2.5 -0.14407,5.11029 11.97158,-2.61965 12.96875,5.8125 0.69077,5.84118 -4.64585,9.03648 -9.09375,10.625 -5.85892,2.09242 -5.59421,10.77355 -0.3125,12.125 4.39282,1.124 15.48692,7.13077 14.75,-1.125 -0.68514,-7.67561 5.85864,-10.45779 10.75,-14.4375 5.91564,-4.81308 12.8945,-2.29557 17.84375,2.09375 3.74173,3.31844 4.96053,-0.38905 9.65625,0.59375 5.6909,1.19107 -2.04536,-4.27259 -2.71875,-6.03125 -2.36821,-6.18481 -10.63857,-4.40046 -15.8125,-6.375 -3.52826,-1.34652 -13.99285,-3.14953 -8.09375,-6.71875 4.58795,-2.77596 12.26672,0.20419 17.34375,3.0625 3.41268,1.92127 9.34927,3.42931 7.9375,-2.4375 -0.85154,-3.53877 -0.68639,-6.63799 -1.5625,-10.09375 -1.41397,-5.57733 -14.08456,-2.03697 -20.875,-3 -6.79044,-0.96301 5.5315,-3.42606 0.0937,-6.84375 -2.5806,-1.62195 -11.49195,-1.36866 -6.5,-5.875 4.9232,-4.44428 13.13002,-5.83664 19.5,-4.25 5.18863,1.29235 -8.94036,6.90573 -1.15625,7.3125 5.27864,0.27586 10.82342,-2.70726 15.875,-1.28125 3.65286,1.03118 13.63916,-0.062 9.21875,-3.40625 -3.78138,-2.86075 -13.7284,3.76494 -17.125,0.71875 -3.4941,-3.13366 -5.93809,-6.66529 -11.625,-5.90625 -4.31501,0.57589 -15.00639,0.31534 -15.5,-2.4375 -0.19553,-1.0904 1.26948,-3.07469 1.78125,-4.375 z m 67.53125,27.03125 c 0.019,0.20031 0.0543,0.38857 0.0625,0.59375 0.24741,2.28573 -3.01303,1.74445 -4.40625,2.25 -0.74995,1.87616 2.83017,2.09242 4.1875,2.0625 1.46602,0.24077 3.25399,0.61663 4.15625,1.8125 -1.20279,-2.3287 -2.53457,-4.56444 -4,-6.71875 z m 4.4375,7.5625 c 0.0649,0.20355 0.10173,0.41862 0.125,0.65625 0.41113,2.47186 -2.97876,2.00608 -4.5,2.5625 -2.19188,1.03526 -4.68934,0.82845 -6.9375,1.625 -1.64278,0.74982 -2.99653,2.95345 -2.09375,4.71875 1.59998,2.39343 4.89477,-0.2498 7.28125,0.53125 1.60235,-0.62681 3.43071,0.69443 1.5625,2.0625 -1.89175,1.15135 -3.68217,2.49818 -5.59375,3.625 -1.63525,1.26936 -4.45643,2.94909 -3.28125,5.40625 0.86068,1.76252 3.28463,2.12578 5.0625,2.09375 2.43886,-0.39941 4.95646,-0.59163 7.40625,-0.125 2.07025,0.73069 4.5076,-0.62261 6.3125,0.75 0.39361,0.47316 0.83239,0.86602 1.3125,1.21875 -0.52017,-8.97944 -2.85101,-17.48566 -6.65625,-25.125 z m -67.6875,43.71875 c -0.9844,-0.0311 -2.02461,2.17087 -1.875,3.25 0.31341,2.26074 0.42163,4.78478 2,6.53125 0.42703,0.47252 0.99502,0.88891 1.28125,1.4375 0.64394,1.2342 -2.53843,2.07957 -3.65625,2.78125 -2.35322,1.47718 -3.62944,4.69733 -6.375,5.40625 -2.38984,0.61711 -4.10355,-2.4007 -6.5625,-2.09375 -1.84012,0.22968 -4.32923,-0.27778 -5.3125,1.9375 -0.59,1.32921 -0.26342,5.22812 1.34375,2.5 1.08396,-1.83997 6.45519,-2.13576 6.09375,1.125 -0.31683,2.85814 -3.94794,1.24972 -5.625,2.4375 -1.15642,0.81901 -2.50982,3.32167 -0.15625,2.625 1.01912,-0.30167 1.97201,0.58952 3.09375,1.125 0.99368,-0.8491 2.01315,-1.35957 3.03125,-1.375 0.48402,-0.007 0.9482,0.11342 1.4375,0.3125 0.9066,-0.58039 1.76032,-0.93584 2.53125,-0.0312 1.30798,1.53474 4.90723,1.661 3.625,4.21875 -0.18747,0.37396 -0.40559,0.76912 -0.625,1.15625 0.82522,1.12798 1.6629,2.36093 2.5,3.625 0.22955,-0.27628 0.42759,-0.54145 0.53125,-0.75 1.02082,-2.05374 2.61111,-3.05699 4.65625,-3.5625 1.95777,-0.48393 3.2096,-3.89135 5.46875,-2.53125 1.07611,0.64789 2.03575,0.47061 0.9375,-0.84375 -1.40815,-1.68525 -3.67055,-1.31018 -5.5,-1.46875 -2.14273,-0.18574 -2.59497,-3.02165 -4.15625,-3.71875 -0.94979,-0.42404 -4.06781,0.0106 -2.3125,-1.46875 1.53911,-1.29712 2.59491,-3.0042 4.1875,-4.28125 1.68249,-1.34914 3.28341,-3.55624 5.59375,-3.25 2.35275,0.31187 3.95261,-1.91878 6.1875,-1.78125 2.03652,0.12532 4.04882,1.12788 5.5,2.84375 2.1116,2.49676 3.24734,6.21117 1.875,9.40625 -0.9046,2.10618 -2.061,4.00203 -3.65625,5.40625 -1.22556,1.07881 -2.33984,4.80175 0.15625,4.125 1.76235,-0.47785 3.16751,-1.89324 4.65625,-2.9375 1.56543,-1.09806 3.01897,-4.18929 4.0625,-4.34375 0.78592,-0.11636 0.67938,1.83159 1.28125,3.46875 1.81751,-2.15553 3.5924,-3.59484 5.34375,-3.5625 1.51928,0.0281 3.0357,1.17165 4.5,2.90625 0.26373,-0.41569 0.52568,-0.82245 0.75,-1.21875 1.93578,-3.41989 0.1717,-4.72383 -0.96875,-6.40625 -1.14047,-1.68242 -1.84256,-1.60715 -0.5625,-3 1.28005,-1.39287 6.44646,-0.54168 7.15625,-3 0.70976,-2.45831 -5.43767,-3.47681 -10.0625,-3 -4.06315,0.41889 -6.50556,3.59629 -9.0625,3.03125 -1.00002,-0.22095 -0.95616,-2.17201 -1.46875,-3.25 -0.97145,-2.04299 -2.53684,-4.01259 -4.5625,-4.90625 -2.46755,-1.08857 -5.49775,0.75746 -7.8125,-1.25 -1.46051,-1.2666 -3.60828,-1.12726 -5.1875,-2.03125 -1.71784,-0.98336 -2.93212,-2.86829 -3.5,-4.9375 -0.12886,-0.46944 -0.50562,-0.64757 -0.78125,-0.65625 z m 73.84375,13.1875 c -1.577,0.31854 -2.9785,0.7115 -3.4375,1.84375 -0.78892,1.33946 -1.92606,3.73102 0.0937,4.59375 1.18616,0.41641 2.26758,-0.24462 3.125,-1.09375 0.08,-1.679 0.18137,-3.4332 0.25,-5.34375 -0.01,0.002 -0.0216,-0.002 -0.0312,0 z m -6.78125,5.6875 c -0.53163,-0.0559 -1.04621,0.63649 -1.15625,2.53125 -0.29344,5.05272 -3.55777,9.61541 -6.09375,14.03125 -2.76104,3.54043 -7.28307,5.01993 -10.15625,8.46875 -1.1849,0.96933 -2.53926,1.6584 -3.9375,2.25 1.62051,2.29446 3.17502,3.8134 4.6875,3.53125 12.02729,-2.73022 20.05707,-9.91581 22.53125,-22.375 -3.38884,1.25505 -5.67221,-0.8837 -4.71875,-3.96875 0.67928,-2.19788 -0.2702,-4.37559 -1.15625,-4.46875 z m -104.4375,5.84375 c -4.97016,0.0147 -9.74813,3.06935 -14,5.40625 -0.50812,0.24907 -0.98919,0.54173 -1.46875,0.84375 2.42693,6.72487 6.28134,12.12467 12.09375,15.4375 -1.26735,-0.88844 -2.02472,-2.06999 -1.5,-3.875 1.71426,-4.69053 7.02707,-4.50424 10.5625,-2.15625 4.11533,1.65262 1.34137,-5.37307 -1.96875,-4.78125 -2.48519,-0.82349 -9.49565,0.953 -6.59375,-2.3125 2.90188,-3.26552 8.14033,1.06605 12.15625,1.5 3.60436,-1.82786 -5.09569,-4.84951 -6.71875,-5.625 -4.2273,-1.02326 -2.03824,-2.17419 1.3125,-2.0625 0.77776,-0.54965 0.54292,-1.65305 -0.40625,-1.84375 -1.16528,-0.36671 -2.32179,-0.53465 -3.46875,-0.53125 z"
           id="path7689" />
        <path
           style="display:inline;overflow:visible;visibility:visible;opacity:1;fill:#17181f;fill-opacity:1;fill-rule:evenodd;stroke:none;stroke-width:2;stroke-linecap:round;stroke-linejoin:round;stroke-miterlimit:4;stroke-dasharray:none;stroke-dashoffset:0;stroke-opacity:1;marker:none"
           d="m 519.5,616.59375 c -0.93246,0.18194 -1.86348,0.37236 -2.78125,0.59375 0.16984,1.76945 -0.17312,3.43977 -2.25,4.21875 -2.06239,0.77352 -3.97459,0.25088 -5.8125,-0.40625 -0.51875,-0.18547 -1.01675,-0.43967 -1.53125,-0.6875 -3.01687,1.25275 -5.91984,2.73213 -8.6875,4.40625 0.59439,2.19379 3.25939,1.96012 5.15625,1.9375 2.66487,-0.0318 5.20489,-1.3608 7.84375,-0.84375 2.67129,0.52339 1.76252,3.66851 2.09375,5.625 0.37524,2.21641 0.51585,4.66066 -0.59375,6.59375 -1.21407,2.11512 -3.40097,3.558 -5.0625,5.375 -1.63406,1.78695 -4.00832,2.55436 -5.46875,4.59375 -2.27624,3.17857 1.76839,3.43672 3.625,1.65625 2.67367,-2.56401 5.28322,-5.20064 8.09375,-7.59375 2.01419,-1.71504 2.56833,0.37964 3.53125,1.625 1.42449,1.84229 1.89969,4.47589 2.375,6.25 0.47528,1.77413 0.006,5.79067 1.5,4.5625 1.65314,-1.35874 1.3398,-4.5862 1.40625,-6.96875 0.0682,-2.44551 0.0525,-5.35327 1.84375,-7.15625 1.54082,-1.55089 4.2226,-0.58769 6.28125,-0.4375 2.99372,0.21841 3.41506,-3.48691 0.28125,-3.375 -2.42104,0.0864 -4.8823,-0.92464 -7.28125,-0.625 -2.59202,0.32376 -2.07468,-2.63059 -3,-4.1875 -1.19032,-2.00273 -4.04193,-3.50577 -4.4375,-5.25 -0.33266,-1.46669 2.26331,-3.07377 3.21875,-4.75 0.87072,-1.52759 -0.14671,-3.69304 -0.34375,-5.15625 z m 50.1875,14.03125 c -0.16935,-0.007 -0.3309,0.0149 -0.5,0.0312 -0.17767,0.0279 -0.33044,0.11103 -0.46875,0.21875 -0.16154,0.12583 -0.30308,0.2848 -0.4375,0.4375 -0.14072,0.14981 -0.25753,0.30053 -0.375,0.46875 -0.11209,0.14769 -0.23152,0.32151 -0.34375,0.46875 -0.0869,0.11398 -0.17518,0.18525 -0.28125,0.28125 -0.14105,0.11113 -0.25546,0.24278 -0.375,0.375 -0.16296,0.1802 -0.34948,0.3701 -0.53125,0.53125 -0.20866,0.19703 -0.45401,0.33341 -0.6875,0.5 -0.19911,0.14204 -0.37236,0.28499 -0.5625,0.4375 -0.13204,0.10589 -0.27636,0.23557 -0.40625,0.34375 -0.14928,0.1092 -0.28229,0.24077 -0.40625,0.375 -0.13385,0.14497 -0.25649,0.31213 -0.375,0.46875 -0.14559,0.1696 -0.28343,0.33759 -0.4375,0.5 -0.15912,0.16776 -0.30298,0.33824 -0.46875,0.5 -0.14366,0.16731 -0.29125,0.33531 -0.4375,0.5 -0.12027,0.14528 -0.25745,0.25906 -0.375,0.40625 -0.1001,0.12533 -0.2224,0.23761 -0.34375,0.34375 -0.13854,0.10666 -0.27415,0.20366 -0.375,0.34375 -0.12678,0.15855 -0.17757,0.37859 -0.25,0.5625 -0.0724,0.18387 -0.15476,0.34479 -0.21875,0.53125 -0.049,0.14271 -0.11416,0.27429 -0.1875,0.40625 -0.0597,0.10739 -0.14532,0.20736 -0.25,0.28125 -0.11437,0.0807 -0.24259,0.14115 -0.375,0.1875 -0.19587,0.0597 -0.39427,0.13764 -0.59375,0.1875 -0.20554,0.0679 -0.41124,0.0841 -0.625,0.125 -0.1762,0.0337 -0.35542,0.09 -0.53125,0.125 -0.14509,0.0289 -0.28771,0.007 -0.4375,0 -0.21909,-0.0103 -0.43997,-0.0462 -0.65625,-0.0937 -0.31406,-0.0589 -0.62449,-0.12064 -0.9375,-0.1875 -0.36726,-0.0898 -0.75722,-0.16249 -1.125,-0.25 -0.33344,-0.0632 -0.64159,-0.1549 -0.96875,-0.25 -0.20795,-0.0562 -0.41922,-0.12202 -0.625,-0.1875 -0.18527,-0.079 -0.39896,-0.14869 -0.59375,-0.1875 -0.18131,-0.0195 -0.36598,-0.0505 -0.53125,0.0312 -0.0377,0.0187 -0.059,0.0705 -0.0937,0.0937 -0.19284,0.23049 -0.18921,0.50772 -0.15625,0.78125 0.057,0.3613 0.21012,0.70687 0.375,1.03125 0.15589,0.30676 0.36137,0.58854 0.59375,0.84375 0.2216,0.23333 0.50606,0.39524 0.78125,0.5625 0.28551,0.166 0.54415,0.32677 0.84375,0.46875 0.26657,0.13991 0.57162,0.27664 0.84375,0.40625 0.27487,0.13087 0.56419,0.22215 0.84375,0.34375 0.26691,0.11024 0.52217,0.24798 0.78125,0.375 0.2326,0.11896 0.47943,0.2069 0.71875,0.3125 0.21597,0.10061 0.42556,0.15961 0.65625,0.21875 0.22306,0.0515 0.46059,0.0276 0.6875,0 0.23436,-0.0285 0.46371,-0.10807 0.6875,-0.1875 0.22547,-0.10039 0.47862,-0.12232 0.71875,-0.15625 0.25901,-0.0366 0.49829,-0.0813 0.75,-0.15625 0.23249,-0.0782 0.46762,-0.20324 0.6875,-0.3125 0.15169,-0.09 0.30659,-0.18247 0.46875,-0.25 0.1328,-0.0553 0.26432,-0.06 0.40625,-0.0625 0.14262,0.01 0.28058,0.0592 0.40625,0.125 0.18732,0.098 0.35354,0.22942 0.53125,0.34375 0.20409,0.13127 0.39394,0.23667 0.59375,0.375 0.20512,0.13031 0.42052,0.27438 0.625,0.40625 0.19137,0.1234 0.39555,0.23102 0.59375,0.34375 0.21188,0.1083 0.4177,0.22596 0.625,0.34375 0.23003,0.1307 0.45785,0.27389 0.6875,0.40625 0.2635,0.17103 0.5284,0.30366 0.8125,0.4375 0.3157,0.14101 0.62869,0.34312 0.9375,0.5 0.27202,0.13395 0.53776,0.24568 0.8125,0.375 0.19691,0.0927 0.41236,0.14703 0.625,0.1875 0.17091,0.0325 0.36189,0.0526 0.53125,0.0937 0.21269,0.0367 0.39044,0.11536 0.59375,0.1875 0.21956,0.0779 0.46581,0.11633 0.6875,0.1875 0.1755,0.0494 0.32753,0.12742 0.5,0.1875 0.15823,0.0692 0.34037,0.12221 0.5,0.1875 0.1934,0.0791 0.3691,0.13874 0.5625,0.21875 0.19832,0.082 0.42578,0.16959 0.625,0.25 0.14174,0.0716 0.26058,0.15621 0.40625,0.21875 0.14684,0.063 0.31454,0.0852 0.46875,0.125 0.14857,0.0451 0.28821,0.11343 0.4375,0.15625 0.16072,0.0711 0.33814,0.11902 0.5,0.1875 0.17617,0.0847 0.33857,0.14805 0.53125,0.15625 0.1774,-0.0166 0.35213,-0.0334 0.53125,-0.0312 0.22101,-0.009 0.43213,-0.0988 0.40625,-0.34375 -0.004,-0.0367 -0.0159,-0.0914 -0.0312,-0.125 -0.0966,-0.21109 -0.25814,-0.38451 -0.40625,-0.5625 -0.15305,-0.17654 -0.29869,-0.34418 -0.4375,-0.53125 -0.14795,-0.19945 -0.3059,-0.40658 -0.46875,-0.59375 -0.14962,-0.17196 -0.32473,-0.32221 -0.5,-0.46875 -0.14033,-0.11735 -0.27678,-0.24683 -0.40625,-0.375 -0.148,-0.14645 -0.29582,-0.28572 -0.4375,-0.4375 -0.15761,-0.16888 -0.3109,-0.33186 -0.46875,-0.5 -0.1704,-0.18152 -0.33064,-0.38066 -0.5,-0.5625 -0.15561,-0.17431 -0.32409,-0.34566 -0.5,-0.5 -0.2071,-0.17084 -0.41685,-0.31349 -0.65625,-0.4375 -0.25258,-0.13815 -0.53022,-0.26633 -0.78125,-0.40625 -0.26387,-0.14709 -0.53499,-0.25425 -0.8125,-0.375 -0.24572,-0.10306 -0.50263,-0.21351 -0.75,-0.3125 -0.19727,-0.0749 -0.36861,-0.13677 -0.5625,-0.21875 -0.14985,-0.073 -0.31163,-0.16091 -0.46875,-0.21875 -0.13587,-0.0623 -0.29761,-0.073 -0.4375,-0.125 -0.13508,-0.0428 -0.24745,-0.12844 -0.375,-0.1875 -0.15535,-0.072 -0.31765,-0.13898 -0.46875,-0.21875 -0.1526,-0.0942 -0.30144,-0.18226 -0.46875,-0.25 -0.1427,-0.0578 -0.29636,-0.12707 -0.4375,-0.1875 -0.11329,-0.0575 -0.22284,-0.085 -0.34375,-0.125 -0.11485,-0.0541 -0.24881,-0.0741 -0.375,-0.0937 -0.11836,-0.0185 -0.22416,-0.0174 -0.34375,-0.0312 -0.0537,-0.006 -0.13512,-0.0192 -0.1875,-0.0312 -0.084,-0.0269 -0.17017,-0.056 -0.25,-0.0937 -0.17228,-0.0816 -0.3563,-0.19008 -0.5,-0.3125 -0.0773,-0.0659 -0.12827,-0.14912 -0.15625,-0.25 -0.0393,-0.10233 -0.0552,-0.20364 -0.0625,-0.3125 0.0123,-0.0965 0.038,-0.18608 0.0625,-0.28125 0.0386,-0.10574 0.0977,-0.18423 0.15625,-0.28125 0.0711,-0.11773 0.18896,-0.21059 0.28125,-0.3125 0.0896,-0.11201 0.17312,-0.21644 0.28125,-0.3125 0.10865,-0.0965 0.22932,-0.1908 0.34375,-0.28125 0.11739,-0.0928 0.22627,-0.18836 0.34375,-0.28125 0.11765,-0.093 0.22626,-0.1879 0.34375,-0.28125 0.11743,-0.0933 0.22641,-0.18763 0.34375,-0.28125 0.11737,-0.0936 0.25781,-0.18742 0.375,-0.28125 0.11731,-0.0939 0.22697,-0.18652 0.34375,-0.28125 0.12265,-0.0995 0.26438,-0.2005 0.375,-0.3125 0.11274,-0.11411 0.18411,-0.24874 0.28125,-0.375 0.0928,-0.13886 0.20132,-0.26011 0.28125,-0.40625 0.0944,-0.17259 0.18632,-0.35867 0.28125,-0.53125 0.10578,-0.1712 0.20034,-0.3321 0.3125,-0.5 0.11383,-0.1808 0.25723,-0.35244 0.375,-0.53125 0.11664,-0.18541 0.17616,-0.38946 0.25,-0.59375 0.0671,-0.17001 0.14004,-0.35491 0.1875,-0.53125 0.0528,-0.19625 0.10242,-0.39689 0.15625,-0.59375 0.0607,-0.20525 0.13239,-0.38669 0.1875,-0.59375 0.0305,-0.17829 0.0437,-0.38234 0.0625,-0.5625 0.0358,-0.15869 0.0331,-0.30858 0.0312,-0.46875 -0.002,-0.16684 -0.0682,-0.31506 -0.125,-0.46875 -0.0604,-0.20112 -0.1666,-0.33762 -0.34375,-0.4375 -0.19134,-0.0927 -0.41667,-0.1104 -0.625,-0.125 z M 546.25,645.59375 c -0.61654,0.0274 -1.22329,0.24695 -1.75,0.5625 -1.56075,1.17733 -2.25812,3.21921 -2.3125,5.125 0.21681,1.4892 0.79852,2.99391 1.9375,4.03125 1.01678,1.15735 0.32421,2.78729 0.875,4.125 0.76376,1.42993 2.53231,2.13609 3.40625,3.5625 0.9957,1.01424 2.60399,1.08345 3.84375,1.71875 1.20738,0.78432 1.29864,2.76988 2.65625,3.625 1.19995,1.08911 2.9136,2.11301 4.5,1.15625 1.32547,-0.64699 2.47412,-2.10018 4.09375,-1.21875 1.56,0.14236 2.7162,-2.20382 4.21875,-0.65625 1.71362,0.52964 3.55667,0.3362 5.09375,-0.59375 1.46557,-1.20575 -0.78261,-1.74653 -1.71875,-1.1875 -1.66391,0.44747 -0.43147,-1.23067 0.375,-1.46875 1.65539,-1.05179 3.18165,-2.54864 3.75,-4.46875 0.10289,-1.87714 -2.06842,-0.72844 -2.28125,0.4375 -0.81319,1.38623 -1.33971,3.43101 -3.1875,3.71875 -1.39032,7.6e-4 -2.65777,0.42781 -3.78125,1.25 -1.38469,0.78297 -2.87901,-0.2446 -4.25,-0.5625 -1.33267,-0.89069 -2.9493,-0.82 -4.4375,-0.4375 -1.8789,0.81661 -1.91971,-1.69849 -0.71875,-2.4375 1.47538,-1.26773 -0.9215,-3.27616 -2.34375,-2.65625 -1.39217,0.21687 -2.48877,-1.807 -0.90625,-2.4375 1.12706,-0.74462 2.86473,-1.22339 2.8125,-2.875 0.0826,-1.25605 -0.41788,-2.8862 -1.75,-3.28125 -1.36993,-0.70916 -2.56897,1.65532 -3.53125,1.03125 -0.76113,-1.40635 -0.66867,-3.05374 -0.8125,-4.59375 -0.52441,-1.51746 -2.44239,-1.51494 -3.78125,-1.46875 z m 36.9375,0.84375 c -0.0582,0.0466 -0.0129,0.0207 -0.0625,0.0625 -0.0301,0.0148 -0.0627,0.0185 -0.0937,0.0312 0.0913,-0.01 0.19028,-0.0179 0.28125,-0.0312 -0.0219,-0.0448 -0.0977,-0.0843 -0.125,-0.0625 z m -93.96875,6.53125 c -0.17748,0.0124 -0.32764,0.0466 -0.5,0.0937 -2.25058,0.39587 -4.44104,1.32147 -6.1875,2.8125 -1.84708,1.18944 -3.96505,1.87999 -5.90625,2.875 -1.65542,0.16195 -3.67275,0.78919 -4.25,2.53125 -0.0413,1.94625 2.36133,0.94041 3.3125,0.34375 1.1572,-0.66757 2.365,-1.35074 3.75,-1.125 1.0186,-0.19049 1.47235,0.40859 0.4375,1 -0.95011,0.83809 -1.88219,1.75585 -2.625,2.71875 -1.17576,0.70263 -2.72731,1.72708 -2.75,3.21875 1.27996,1.60304 2.9258,-1.04713 3.90625,-1.9375 1.25633,-1.57914 2.72363,-2.93693 4.21875,-4.28125 1.17584,-0.87457 2.49635,-1.62168 3.875,-2.125 1.21989,-0.34732 2.93402,1.00253 1.96875,2.21875 -1.63963,0.69189 -3.03247,1.94354 -3.75,3.59375 -0.54318,1.07167 -1.62526,3.26067 0.15625,3.65625 1.6754,-0.37589 1.83415,-2.54142 2.8125,-3.71875 0.76122,-1.41085 2.35317,-2.08881 3.875,-2.25 1.62244,-0.12853 1.49967,1.8606 0.8125,2.78125 -0.75716,1.37597 -2.40545,1.57338 -3.71875,2.125 -1.52618,0.22831 -0.72853,1.62452 0.46875,1.375 -0.28251,0.35632 -1.13514,1.54461 -0.5625,2.4375 1.01116,1.64031 2.56302,-0.56576 2.78125,-1.71875 0.2866,-1.58163 2.0888,-1.57078 2.875,-2.65625 0.67009,-1.21098 0.57506,-2.76928 1.8125,-3.65625 1.05264,-0.90214 2.50709,-0.11849 3.71875,-0.0937 1.59581,0.0259 1.44266,2.08666 1.125,3.15625 -0.93882,1.89588 -2.66683,3.26297 -4.3125,4.53125 -1.22909,0.28246 -1.51515,2.70372 0.0937,1.8125 1.59574,-0.32026 1.60075,1.96457 1.125,2.96875 -0.5209,0.86097 -0.38915,3.54775 1,2.09375 0.89853,-1.37058 0.78389,-3.29041 2.03125,-4.46875 1.16812,-1.16536 1.8326,-2.6721 2.71875,-4.03125 1.29492,-1.52108 1.32967,-3.73131 0.5625,-5.5 -0.20635,-1.49856 -0.89467,-2.87381 -1.71875,-4.125 -0.50919,-1.12897 -1.66809,-2.04437 -2.96875,-1.75 -1.25599,0.003 -2.09994,0.97724 -3.125,1.53125 -1.1189,0.62723 -2.81478,0.72402 -3.8125,-0.0625 -0.89912,-1.37098 0.38125,-2.92919 0.0625,-4.375 -0.47676,-1.051 -1.58027,-1.97227 -2.78125,-2 -0.17719,0.004 -0.35377,-0.0124 -0.53125,0 z M 470.625,658.9375 c -1.6386,4.68836 -2.75711,9.61132 -3.28125,14.71875 0.59367,-0.32619 1.19621,-0.6096 1.8125,-0.875 2.3746,-1.90455 2.19678,-5.249 2.3125,-8 -0.17374,-1.8742 0.28063,-4.0443 -0.65625,-5.6875 -0.0627,-0.0535 -0.12243,-0.11072 -0.1875,-0.15625 z m 71.625,8.4375 c -4.41297,-0.12526 -2.68033,6.90237 -5.6875,4.84375 -2.78716,-2.78922 -7.03647,-4.21385 -11.15625,-4.46875 -4.42662,-0.0866 -7.53652,3.46668 -8.96875,7.34375 -1.56619,5.64183 4.31248,-2.56698 5.65625,1.125 1.01244,2.28251 3.3262,2.84036 3.78125,-0.15625 1.82487,-3.62546 9.62421,-2.47897 6.21875,2.21875 -2.32304,2.85804 -5.25739,5.18228 -7.5,8.125 -2.05746,3.37034 -8.04176,2.41425 -9.65625,5.34375 2.38258,-0.45653 9.57245,-3.23312 7.5625,1.96875 3.40255,1.00115 1.97316,-6.93825 5.71875,-6.03125 0.24414,3.11488 5.59271,8.0009 7.75,5.875 -2.20992,-2.63294 -5.63448,-5.05872 -5.0625,-9.0625 0.29095,-3.88693 5.05499,-6.4337 8.5,-4.84375 3.10627,4.03247 -1.79241,5.93552 -3.4375,8.84375 -0.0947,2.26194 4.11981,-3.20185 3.53125,0.6875 -1.83591,3.01241 1.99008,3.30645 1.875,0.21875 -0.50266,-3.63263 0.78033,-7.77111 4.90625,-8.375 1.89757,-1.67174 3.9104,-3.17102 6,-4.625 4.42442,-2.54675 6.27102,3.04207 2.84375,5.59375 -2.19602,2.46213 -2.88654,6.51999 -1.53125,9.4375 1.12276,-3.39225 2.7646,-8.0676 7.03125,-8.15625 3.35038,-0.10543 6.68883,-5.93391 9.90625,-2.4375 1.03897,1.63079 6.22259,2.32755 3,4.78125 -2.15204,1.31858 -7.09849,3.99917 -5.78125,6.65625 2.79638,-0.66984 4.90792,-7.21275 6.875,-2.09375 1.46608,-1.11485 1.69531,-6.72967 5.9375,-4.78125 4.15123,1.18381 8.41549,1.27959 12.34375,3.28125 2.95951,1.28254 -0.63256,5.3712 -1.1875,7.5 -1.14168,4.56496 -6.26273,2.56546 -9.8125,3.09375 -1.56584,0.4545 -8.24346,2.67917 -4.78125,4.0625 2.65141,-1.64769 7.34864,-3.18355 9.9375,-1.28125 2.56738,3.61782 -1.86631,8.40289 -6.03125,7.625 -4.16492,-0.77788 -7.19988,4.23922 -10.0625,6.875 -2.48044,4.98122 -5.84688,9.40704 -9.25,13.78125 0.26289,0.43486 0.55171,0.86424 0.8125,1.3125 1.7113,-2.08244 3.84615,-5.18944 6,-3.9375 1.87703,2.44973 -2.22259,9.0841 1.53125,9.0625 3.7329,-2.77947 -1.23752,-8.56153 2.09375,-11.34375 3.10312,-0.19281 4.10607,4.23347 7.59375,2.34375 4.8697,-0.6423 -0.49865,-3.00379 -2.65625,-2.46875 -3.1961,-1.32125 -2.18624,-6.46633 -1.78125,-9.15625 1.82867,-3.13064 5.81821,-5.57138 8.59375,-4.6875 2.77555,0.88389 1.24993,7.34465 3.1875,3.5 0.89235,-3.89429 3.03316,-7.97722 4.96875,-11.53125 0.7196,-3.18845 2.76798,-5.61753 4.6875,-8.09375 0.0661,-2.98348 0.11851,-5.68974 0.15625,-8.0625 -0.0328,-0.011 -0.0601,-0.0207 -0.0937,-0.0312 -0.0713,-4.8281 -7.18145,-1.45408 -7.6875,-5.84375 -3.79873,-0.47687 -7.83891,0.70299 -11.71875,0.34375 -4.33415,-1.05464 -6.38931,-5.39106 -10,-7.53125 -3.35535,-3.76795 -7.87511,-0.008 -11.75,0 -3.09229,-2.72991 -7.39514,-4.0825 -11.09375,-6.28125 -0.91327,-0.35626 -1.68208,-0.54461 -2.3125,-0.5625 z m -16.8125,71.8125 c -0.38442,-0.008 -0.72879,0.16277 -1,0.4375 0.89283,1.17727 1.78405,2.26909 2.6875,3.15625 10e-4,-0.0725 -0.002,-0.14665 0,-0.21875 -0.25402,-1.14034 -0.32975,-2.5105 -1.28125,-3.3125 -0.13762,-0.0476 -0.27608,-0.0598 -0.40625,-0.0625 z"
           id="path5621" />
      </g>
      <path
         sodipodi:nodetypes="cccsssccssc"
         id="path3215"
         d="m 597,680.36218 c 0,4.84287 -0.53051,37.56259 -1.53654,42.10417 -2.4742,12.45921 -10.48333,19.63252 -22.51062,22.36274 -5.59014,1.04284 -11.94871,-21.82388 -18.84956,-21.95132 -6.90086,-0.12744 -14.344,22.48441 -22.10328,22.48441 -7.79566,0 -15.2722,-22.62465 -22.2003,-22.51962 -6.92809,0.10504 -13.30773,22.93976 -18.90959,21.8585 -12.68377,-2.10494 -19.31565,-10.7812 -22.44296,-22.64457 C 467.49911,717.64103 467,685.05954 467,680.36218 c 0,-35.88 29.12,-65 65,-65 35.88,0 65,29.12 65,65 z"
         style="fill:url(#radialGradient3256);fill-opacity:1;stroke:none;stroke-width:4;stroke-linecap:round;stroke-miterlimit:4;stroke-opacity:1" />
      <g
         id="g3217"
         transform="translate(328,244)">
        <circle
           transform="translate(4,7)"
           id="path3219"
           style="opacity:1;fill:#ffffff;fill-opacity:1;stroke:none;stroke-width:4;stroke-linecap:round;stroke-miterlimit:4;stroke-dasharray:none;stroke-opacity:1"
           cx="239.5"
           cy="417.86218"
           r="15.5" />
        <circle
           style="opacity:1;fill:url(#radialGradient3241);fill-opacity:1;stroke:none;stroke-width:4;stroke-linecap:round;stroke-miterlimit:4;stroke-dasharray:none;stroke-opacity:1"
           id="path3221"
           transform="translate(4,7)"
           cx="239.5"
           cy="417.86218"
           r="15.5" />
        <circle
           transform="matrix(0.6129032,0,0,0.6129032,101.70968,169.7531)"
           id="path3223"
           style="opacity:1;fill:#000000;fill-opacity:1;stroke:none;stroke-width:4;stroke-linecap:round;stroke-miterlimit:4;stroke-dasharray:none;stroke-opacity:1"
           cx="239.5"
           cy="417.86218"
           r="15.5" />
      </g>
      <g
         id="g3225"
         transform="translate(288,244)">
        <circle
           style="opacity:1;fill:#ffffff;fill-opacity:1;stroke:none;stroke-width:4;stroke-linecap:round;stroke-miterlimit:4;stroke-dasharray:none;stroke-opacity:1"
           id="path3227"
           transform="translate(4,7)"
           cx="239.5"
           cy="417.86218"
           r="15.5" />
        <circle
           transform="translate(4,7)"
           id="path3229"
           style="opacity:1;fill:url(#radialGradient3243);fill-opacity:1;stroke:none;stroke-width:4;stroke-linecap:round;stroke-miterlimit:4;stroke-dasharray:none;stroke-opacity:1"
           cx="239.5"
           cy="417.86218"
           r="15.5" />
        <circle
           style="opacity:1;fill:#000000;fill-opacity:1;stroke:none;stroke-width:4;stroke-linecap:round;stroke-miterlimit:4;stroke-dasharray:none;stroke-opacity:1"
           id="path3231"
           transform="matrix(0.6129032,0,0,0.6129032,101.70968,169.7531)"
           cx="239.5"
           cy="417.86218"
           r="15.5" />
      </g>
      <path
         style="fill:#ffffff;fill-opacity:0.627451;stroke:none;stroke-width:4;stroke-linecap:round;stroke-miterlimit:4;stroke-opacity:1;filter:url(#filter3730)"
         d="m 503.00895,647.25201 c -10.02556,10.26977 -20.40625,16.41401 -23.17119,13.71483 -2.76493,-2.6992 3.12774,-13.22472 13.15329,-23.49449 10.02556,-10.26977 20.40625,-16.41401 23.17119,-13.71483 2.76493,2.6992 -3.12774,13.22472 -13.15329,23.49449 z"
         id="path3233" />
      <path
         transform="rotate(39.532901,101.27012,1066.6625)"
         style="fill:#ffffff;fill-opacity:0.434389;stroke:none;stroke-width:4;stroke-linecap:round;stroke-miterlimit:4;stroke-opacity:1;filter:url(#filter4065)"
         d="m 262,501.86218 c 0,7.452 -2.464,13.5 -5.5,13.5 -3.036,0 -5.5,-6.048 -5.5,-13.5 0,-7.452 2.464,-13.5 5.5,-13.5 3.036,0 5.5,6.048 5.5,13.5 z"
         id="path3235" />
    </g>
  </g>
</svg>
